<?xml version="1.0" encoding="utf-8"?><!-- Uploaded to: SVG Repo, www.svgrepo.com, Generator: SVG Repo Mixer Tools -->
<svg fill="#000000" width="800px" height="800px" viewBox="0 0 24 24" id="date-double-check" data-name="Flat Color" xmlns="http://www.w3.org/2000/svg" class="icon flat-color"><path id="primary" d="M21,7H3A1,1,0,0,0,2,8V20a2,2,0,0,0,2,2H20a2,2,0,0,0,2-2V8A1,1,0,0,0,21,7Z" style="fill: rgb(0, 0, 0);"></path><path id="secondary" d="M22,6V9H2V6A2,2,0,0,1,4,4H20A2,2,0,0,1,22,6ZM9.71,17.71l4-4a1,1,0,0,0-1.42-1.42L9,15.59l-1.29-1.3a1,1,0,0,0-1.42,1.42l2,2a1,1,0,0,0,1.42,0Zm4,0,4-4a1,1,0,0,0-1.42-1.42l-4,4a1,1,0,0,0,0,1.42,1,1,0,0,0,1.42,0Z" style="fill: rgb(44, 169, 188);"></path><path id="primary-2" data-name="primary" d="M16,7a1,1,0,0,1-1-1V3a1,1,0,0,1,2,0V6A1,1,0,0,1,16,7ZM9,6V3A1,1,0,0,0,7,3V6A1,1,0,0,0,9,6Z" style="fill: rgb(0, 0, 0);"></path></svg>