<?xml version="1.0" encoding="iso-8859-1"?>
<!-- Uploaded to: SVG Repo, www.svgrepo.com, Generator: SVG Repo Mixer Tools -->
<svg height="800px" width="800px" version="1.1" id="Layer_1" xmlns="http://www.w3.org/2000/svg" xmlns:xlink="http://www.w3.org/1999/xlink" 
	 viewBox="0 0 512 512" xml:space="preserve">
<path style="fill:#C9C4E1;" d="M429.071,75.352H82.929c-37.765,0-68.38,30.615-68.38,68.38v50.678h482.902v-50.678
	C497.451,105.965,466.836,75.352,429.071,75.352z"/>
<g>
	<path style="fill:#331E68;" d="M497.451,208.958H14.549C6.514,208.958,0,202.445,0,194.409v-50.678
		c0-45.727,37.201-82.929,82.929-82.929h346.143c45.727,0,82.929,37.201,82.929,82.929v50.678
		C512,202.445,505.485,208.958,497.451,208.958z M29.098,179.861h453.804v-36.129c0-29.683-24.148-53.831-53.831-53.831H82.929
		c-29.683,0-53.831,24.148-53.831,53.831V179.861z"/>
	<path style="fill:#331E68;" d="M134.582,364.96c0-13.05-44.261-4.161-44.261-35.937c0-13.997,8.7-29.128,35.559-29.128
		c16.456,0,32.154,5.674,32.154,13.618c0,3.784-3.783,13.808-10.592,13.808c-5.107,0-10.97-5.674-21.185-5.674
		c-7.565,0-10.781,3.215-10.781,6.052c0,10.592,44.637,2.837,44.637,36.126c0,17.779-12.861,29.128-36.505,29.128
		c-19.859,0-35.936-8.133-35.936-17.402c0-4.539,3.783-12.861,9.646-12.861c6.052,0,10.402,8.511,25.535,8.511
		C132.878,371.202,134.582,367.608,134.582,364.96z"/>
	<path style="fill:#331E68;" d="M254.114,335.832c0,16.833-9.646,17.59-18.346,17.59h-36.505v1.135
		c0,9.268,7.755,15.509,19.292,15.509c11.728,0,17.402-6.998,23.643-6.998c6.81,0,10.781,8.322,10.781,12.861
		c0,7.187-13.807,17.024-35.181,17.024c-27.992,0-47.854-16.078-47.854-40.1v-13.807c0-21.185,19.293-39.152,43.503-39.152
		C235.2,299.895,254.114,314.46,254.114,335.832z M222.716,336.968c2.648,0,3.972-0.946,3.972-4.539
		c0-7.565-6.81-11.35-13.807-11.35c-6.81,0-13.618,3.784-13.618,11.35v4.539H222.716z"/>
	<path style="fill:#331E68;" d="M294.775,309.92v4.35c4.35-7.376,13.618-14.376,25.535-14.376c19.103,0,33.857,17.969,33.857,39.72
		v13.24c0,20.995-15.32,40.1-32.911,40.1c-11.159,0-20.996-7.376-24.588-15.131v45.205c0,4.539-6.62,9.078-14.943,9.078
		c-8.322,0-14.374-4.539-14.374-9.078V309.92c0-5.296,6.241-8.889,13.996-8.889C289.101,301.031,294.775,304.625,294.775,309.92z
		 M324.849,339.615c0-7.187-6.432-14.185-14.376-14.185c-6.809,0-13.807,5.296-13.807,14.185v15.7
		c0,3.215,5.863,12.105,14.187,12.105c7.375,0,13.996-7.187,13.996-14.565V339.615z"/>
	<path style="fill:#331E68;" d="M396.907,359.097c0,5.485,1.891,7.376,7.755,7.376h8.133c8.513,0,12.483,6.243,12.483,12.295
		c0,6.241-3.97,12.294-12.483,12.294h-8.133c-24.022,0-37.072-9.646-37.072-31.965v-88.329c0-5.296,7.756-8.889,14.565-8.889
		c7.376,0,14.754,3.594,14.754,8.889v30.263h21.372c4.728,0,7.187,5.296,7.187,10.402c0,5.296-2.459,10.402-7.187,10.402h-21.372
		v37.261H396.907z"/>
</g>
<path style="fill:#C9C4E1;" d="M110.512,111.724L110.512,111.724c-16.004,0-29.098-13.094-29.098-29.098V53.528
	c0-16.004,13.094-29.098,29.098-29.098l0,0c16.004,0,29.098,13.094,29.098,29.098v29.098
	C139.608,98.63,126.516,111.724,110.512,111.724z"/>
<path style="fill:#331E68;" d="M110.51,126.273c-24.067,0-43.647-19.58-43.647-43.647V53.528c0-24.067,19.58-43.647,43.647-43.647
	s43.647,19.58,43.647,43.647v29.098C154.157,106.693,134.577,126.273,110.51,126.273z M110.51,38.979
	c-8.022,0-14.549,6.527-14.549,14.549v29.098c0,8.022,6.527,14.549,14.549,14.549s14.549-6.527,14.549-14.549V53.528
	C125.059,45.506,118.534,38.979,110.51,38.979z"/>
<path style="fill:#C9C4E1;" d="M256.001,111.724L256.001,111.724c-16.004,0-29.098-13.094-29.098-29.098V53.528
	c0-16.004,13.094-29.098,29.098-29.098l0,0c16.004,0,29.098,13.094,29.098,29.098v29.098
	C285.097,98.63,272.005,111.724,256.001,111.724z"/>
<path style="fill:#331E68;" d="M255.999,126.273c-24.067,0-43.647-19.58-43.647-43.647V53.528c0-24.067,19.58-43.647,43.647-43.647
	s43.647,19.58,43.647,43.647v29.098C299.646,106.693,280.066,126.273,255.999,126.273z M255.999,38.979
	c-8.022,0-14.549,6.527-14.549,14.549v29.098c0,8.022,6.527,14.549,14.549,14.549c8.022,0,14.549-6.527,14.549-14.549V53.528
	C270.548,45.506,264.022,38.979,255.999,38.979z"/>
<path style="fill:#C9C4E1;" d="M401.49,111.724L401.49,111.724c-16.004,0-29.098-13.094-29.098-29.098V53.528
	c0-16.004,13.094-29.098,29.098-29.098l0,0c16.004,0,29.098,13.094,29.098,29.098v29.098
	C430.586,98.63,417.492,111.724,401.49,111.724z"/>
<g>
	<path style="fill:#331E68;" d="M401.488,126.273c-24.067,0-43.647-19.58-43.647-43.647V53.528c0-24.067,19.58-43.647,43.647-43.647
		c24.067,0,43.647,19.58,43.647,43.647v29.098C445.135,106.693,425.555,126.273,401.488,126.273z M401.488,38.979
		c-8.022,0-14.549,6.527-14.549,14.549v29.098c0,8.022,6.527,14.549,14.549,14.549c8.022,0,14.549-6.527,14.549-14.549V53.528
		C416.037,45.506,409.51,38.979,401.488,38.979z"/>
	<path style="fill:#331E68;" d="M497.451,416.037c-8.034,0-14.549-6.514-14.549-14.549V194.409c0-8.035,6.515-14.549,14.549-14.549
		c8.034,0,14.549,6.514,14.549,14.549v207.079C512,409.523,505.485,416.037,497.451,416.037z"/>
	<path style="fill:#331E68;" d="M474.233,502.118H52.86c-29.147,0-52.86-23.713-52.86-52.86V194.409
		c0-8.035,6.514-14.549,14.549-14.549s14.549,6.514,14.549,14.549v254.848c0,13.103,10.66,23.763,23.763,23.763h421.372
		c8.034,0,14.549,6.514,14.549,14.549C488.781,495.605,482.268,502.118,474.233,502.118z"/>
</g>
</svg>